# xmcd CD database file
#
# Track frame offsets:
#	150
#	20837
#	40270
#	60950
#
# Disc length: 1070 seconds
#
# Revision: 0
# Processed by: cddbd v1.5.1PL0 Copyright (c) Steve Scherf et al.
# Submitted via: CDex 1.51
#
DISCID=2b042c04
DTITLE=小柳 ゆき - Crystal Days
DYEAR=2004
DGENRE=JPop
TTITLE0=Crystal Days
TTITLE1=The song with sorrow words <version from Tokyo>
TTITLE2=Crystal Days -Instrumental-
TTITLE3=The song with sorrow words <version from Tokyo> -Instrumental-
EXTD=YEAR: 2004
EXTT0=
EXTT1=
EXTT2=
EXTT3=
PLAYORDER=
